<svg fill="none" height="25" viewBox="0 0 412 25" width="412" xmlns="http://www.w3.org/2000/svg" xmlns:xlink="http://www.w3.org/1999/xlink"><clipPath id="a"><path d="m0 0h29.0408v22h-29.0408z"/></clipPath><g fill="#fff"><g clip-path="url(#a)"><path d="m16.6121 1.53969-.2968-1.4542769c0-.0283186-.0112-.0554773-.0313-.07550161-.02-.02002429-.0472-.03127379-.0755-.03127379s-.0555.0112495-.0755.03127379c-.02.02002431-.0312.04718301-.0312.07550161l-.299 1.4628269c.1408-.02658.2837-.04087.4271-.04271.1282.00011.2561.01154.3822.03416z"/><path d="m17.7119.565902c.0049-.024044.0017-.049028-.0091-.07105-.0109-.022021-.0287-.03984-.0507-.050674-.0221-.010354-.0471-.012823-.0708-.006994-.0237.005828-.0447.019602-.0594.039027l-.8372 1.080569c.2609.05953.5081.16825.7283.32032z"/><path d="m17.6543 5.61638-.094.32032-.0363.13027.3609.18793c.0155.00682.0322.01045.0491.01067.0269.00064.053-.00933.0726-.02776.0162-.01525.0273-.03508.0319-.05684s.0024-.0444-.0062-.06488l-.3076-.69191c-.0256.06407-.0491.12813-.0704.1922z"/><path d="m18.3291 3.26946c-.0843-.48135-.3344-.91803-.7069-1.23433-.0555-.04698-.111-.08969-.1687-.1324l1.1425-.60862c.021-.01156.0452-.01574.0688-.01186.0237.00387.0453.01557.0615.03322.0145.019.0224.04226.0224.0662 0 .02393-.0079.04719-.0224.0662l-.7026 1.01863 1.1041-.22422c.0228-.00427.0465-.00095.0673.00946.0208.0104.0377.02733.048.04819.0111.02087.0149.0449.0106.06817s-.0163.04441-.0341.05997l-.8905.77518.9481.19647c.0222.00434.0423.01556.0577.03205.0153.0165.025.03742.0278.05978.0023.02261-.0027.04536-.0142.06495-.0115.01958-.029.03499-.0499.04396l-.8862.39293.7773.39721c.0201.01053.0363.02717.0462.04752.01.02035.0133.04334.0093.06566-.0034.02201-.0137.04237-.0294.05812-.0158.01574-.0361.02606-.0581.02943l-.976.16017.7133.73675c.0158.01698.0258.03856.0285.06161s-.0021.04635-.0136.06652c-.0114.0201-.029.03596-.0501.0452-.0212.00924-.0448.01137-.0673.00605l-1.0678-.25626c.1028-.23647.2204-.46615.3524-.68763l.0149-.02563c.251-.43125.3353-.93947.2371-1.42865z"/><path d="m14.4751 6.26473c-.0216-.00304-.0419-.0124-.0583-.02692-.0162-.01525-.0273-.03508-.0319-.05684-.0045-.02176-.0024-.0444.0063-.06488l.2734-.61503c.0683.18793.1324.37371.1921.58727l-.3181.16657c-.0198.00945-.0418.01287-.0635.00983z"/><path d="m13.1249 3.60046.8862.39293-.7709.39721c-.0201.01053-.0363.02717-.0463.04752s-.0132.04334-.0093.06566c.0034.02201.0137.04237.0295.05812.0157.01574.0361.02606.0581.02943l.9759.16017-.7239.73675c-.0158.01698-.0258.03856-.0285.06161s.0021.04635.0135.06652c.0114.0201.029.03596.0502.0452s.0448.01137.0673.00605l1.0101-.24345c-.0748-.19433-.1516-.38652-.2392-.56591l-.0534-.11318c-.1108-.198-.1948-.40985-.2498-.62997-.0666-.30305-.0658-.61392-.0012-.91163l.0012-.00024-.001-.00082c.0513-.2357.1426-.46312.2722-.67186.0131-.02234.0267-.04441.0406-.06621l.0106.00214-.0062-.00902c.1423-.22082.3247-.41337.538-.56756l-1.1041-.59581c-.0209-.01156-.0452-.01574-.0688-.01186-.0236.00387-.0453.01557-.0614.03322-.0146.019-.0225.04226-.0225.0662 0 .02393.0079.04719.0225.0662l.6963 1.00961-.0044.00688-1.102-.22208c-.0231-.00407-.047-.00067-.0681.00969s-.0384.02716-.0493.04796c-.0102.02126-.0132.04524-.0086.06834.0047.0231.0167.04408.0342.0598l.881.77436-.0002.00106-.947.19196c-.0221.00434-.0423.01556-.0576.03205-.0154.01649-.0251.03742-.0278.05978-.0033.02328.0012.047.0128.06747.0116.02046.0296.03653.0513.04571z"/><path d="m15.7408 1.56105c-.2609.05448-.5093.15733-.7324.30324l-.2969-1.298388c-.0048-.024044-.0016-.049028.0092-.07105.0108-.022021.0286-.03984.0506-.050674.0221-.010354.0471-.012823.0708-.006994.0237.005828.0447.019602.0595.039027z"/><path d="m14.5706 2.65016c-.2631.42279-.3498.93195-.2413 1.41798.0636.24119.1569.47359.2776.6919.2117.45245.3832.92265.5125 1.40516.0534.21356.1025.42711.141.64066.02.11621.0457.22866.0717.34264l.0051.02253c.0077.03186.0207.06219.0385.08969.6122-.34595 1.2293-.6613 1.8515-.94603l.0256-.07474c0-.01943.0073-.03886.0146-.05829.0032-.00833.0063-.01667.0089-.025h-.0128c.0405-.13401.0674-.22709.0926-.31463.0267-.09236.0516-.17874.0889-.30039.1169-.33667.2702-.65961.457-.96312.2278-.38578.3039-.8425.2135-1.2813-.0483-.25337-.1472-.49442-.2907-.70877-.1435-.21436-.3286-.39764-.5444-.53892s-.4579-.23768-.7117-.28345c-.2539-.04576-.5144-.03996-.7659.01706-.2552.04879-.497.15134-.7095.30083-.2124.14949-.3906.3425-.5227.56619z"/><path clip-rule="evenodd" d="m26.3885 14.4318-3.325 5.0718h5.9346v2.4921h-10.2932v-.9396l5.0228-7.391c.9965-1.4778 1.4948-2.7213 1.4948-3.73073-.0014-1.19588-.7182-1.79382-2.1504-1.79382-1.8174-.05125-3.6539.43564-5.4477 1.23005v12.6251h-2.8104v-11.1046c-1.3135.8329-2.5678 1.7554-3.7542 2.7612l2.8915 8.3434h-3.1221l-2.05652-6.2826c-2.02627 1.9486-3.90099 4.0489-5.60784 6.2826h-3.1263879l5.5523279-16.01629h2.81032l1.9049 5.50109c3.8289-3.07088 8.2729-5.63989 12.4521-5.72318h.2136c1.497.0363 2.9513.41429 3.8055 1.10406.9154.73746 1.3731 1.76179 1.3731 3.07299 0 1.20443-.5873 2.70353-1.7618 4.49743zm-19.39256-4.1515-1.97107 6.035c.90972-.9397 1.91768-1.9177 2.99825-2.8915z" fill-rule="evenodd"/></g><path d="m47.515 8.35h1.14l4.35 10.65h-1.44l-1.26-3.12h-4.47l-1.245 3.12h-1.44zm2.49 6.48-1.92-4.92-1.98 4.92zm4.4214 4.17v-10.65h1.35v9.45h5.94v1.2zm8.7597 0v-10.65h1.35v9.45h5.94v1.2zm15.9898-1.2v1.2h-7.23v-10.65h7.095v1.2h-5.745v3.45h4.995v1.125h-4.995v3.675zm3.202-6.93v8.13h-1.35v-10.65h1.05l6.6 8.295v-8.28h1.35v10.635h-1.14zm13.9869 8.13v-10.65h1.35v10.65zm5.2462-8.13v8.13h-1.35v-10.65h1.05l6.6 8.295v-8.28h1.35v10.635h-1.14zm16.448-.285c-.12-.14-.28-.275-.48-.405s-.425-.245-.675-.345c-.25-.11-.525-.195-.825-.255-.29-.07-.595-.105-.915-.105-.83 0-1.44.155-1.83.465-.38.31-.57.735-.57 1.275 0 .29.055.53.165.72s.28.355.51.495c.24.13.535.245.885.345s.765.205 1.245.315c.55.12 1.045.26 1.485.42.45.15.83.34 1.14.57.32.23.56.51.72.84.17.33.255.735.255 1.215 0 .51-.1.955-.3 1.335-.2.37-.475.68-.825.93-.34.24-.745.42-1.215.54-.47.11-.98.165-1.53.165-.82 0-1.6-.125-2.34-.375-.73-.26-1.395-.635-1.995-1.125l.645-1.14c.16.17.365.34.615.51.26.17.55.325.87.465.33.13.68.24 1.05.33.38.08.775.12 1.185.12.76 0 1.35-.135 1.77-.405s.63-.675.63-1.215c0-.3-.07-.55-.21-.75-.13-.21-.325-.39-.585-.54s-.585-.28-.975-.39c-.38-.12-.815-.24-1.305-.36-.54-.13-1.015-.27-1.425-.42s-.755-.33-1.035-.54c-.27-.21-.475-.465-.615-.765s-.21-.66-.21-1.08c0-.51.095-.96.285-1.35s.455-.72.795-.99.745-.47 1.215-.6c.47-.14.98-.21 1.53-.21.72 0 1.37.11 1.95.33s1.095.515 1.545.885zm10.566-1.035h-3.675v9.45h-1.35v-9.45h-3.675v-1.2h8.7zm1.534 9.45v-10.65h1.35v10.65zm11.576-9.45h-3.675v9.45h-1.35v-9.45h-3.675v-1.2h8.7zm5.914 8.31c.62 0 1.135-.12 1.545-.36s.735-.55.975-.93c.25-.39.425-.83.525-1.32.1-.5.15-1.005.15-1.515v-5.385h1.35v5.385c0 .72-.085 1.405-.255 2.055-.16.64-.42 1.205-.78 1.695s-.83.88-1.41 1.17c-.57.28-1.265.42-2.085.42-.85 0-1.565-.15-2.145-.45s-1.05-.695-1.41-1.185c-.35-.5-.605-1.07-.765-1.71-.15-.65-.225-1.315-.225-1.995v-5.385h1.35v5.385c0 .53.05 1.045.15 1.545.11.49.285.925.525 1.305.25.38.575.69.975.93.41.23.92.345 1.53.345zm14.623-8.31h-3.675v9.45h-1.35v-9.45h-3.675v-1.2h8.7zm8.764 8.25v1.2h-7.23v-10.65h7.095v1.2h-5.745v3.45h4.995v1.125h-4.995v3.675z"/><path d="m208.515 8.35h1.14l4.35 10.65h-1.44l-1.26-3.12h-4.47l-1.245 3.12h-1.44zm2.49 6.48-1.92-4.92-1.98 4.92zm4.421 4.17v-10.65h4.56c.47 0 .9.1 1.29.3.4.19.74.45 1.02.78.29.32.515.685.675 1.095.16.4.24.81.24 1.23 0 .37-.055.73-.165 1.08-.1.34-.25.65-.45.93-.19.28-.425.52-.705.72-.27.2-.575.345-.915.435l2.58 4.08h-1.53l-2.43-3.825h-2.82v3.825zm1.35-5.025h3.225c.28 0 .53-.06.75-.18.23-.12.425-.28.585-.48.16-.21.285-.45.375-.72s.135-.55.135-.84c0-.3-.055-.58-.165-.84-.1-.27-.24-.505-.42-.705-.17-.21-.375-.37-.615-.48-.23-.12-.475-.18-.735-.18h-3.135zm16.101-4.425h-3.675v9.45h-1.35v-9.45h-3.675v-1.2h8.7zm1.534 9.45v-10.65h1.35v10.65zm3.896 0v-10.65h7.035v1.2h-5.685v3.555h4.785v1.125h-4.785v4.77zm8.745 0v-10.65h1.35v10.65zm3.207-5.4c0-.64.11-1.275.33-1.905.23-.64.56-1.21.99-1.71.44-.51.975-.92 1.605-1.23s1.345-.465 2.145-.465c.95 0 1.765.215 2.445.645s1.185.99 1.515 1.68l-1.065.69c-.16-.34-.355-.625-.585-.855-.22-.23-.465-.415-.735-.555-.26-.14-.53-.24-.81-.3s-.555-.09-.825-.09c-.59 0-1.115.125-1.575.375-.45.24-.83.56-1.14.96-.31.39-.545.835-.705 1.335-.15.49-.225.985-.225 1.485 0 .56.09 1.095.27 1.605.19.5.45.945.78 1.335s.72.7 1.17.93.94.345 1.47.345c.28 0 .565-.035.855-.105.3-.07.585-.18.855-.33.27-.16.52-.355.75-.585.24-.24.435-.525.585-.855l1.125.615c-.17.4-.41.755-.72 1.065-.3.3-.645.555-1.035.765-.38.21-.785.37-1.215.48s-.85.165-1.26.165c-.73 0-1.4-.16-2.01-.48s-1.14-.735-1.59-1.245c-.44-.52-.785-1.105-1.035-1.755-.24-.66-.36-1.33-.36-2.01zm10.914 5.4v-10.65h1.35v10.65zm7.137-10.65h1.14l4.35 10.65h-1.44l-1.26-3.12h-4.47l-1.245 3.12h-1.44zm2.49 6.48-1.92-4.92-1.98 4.92zm4.421 4.17v-10.65h1.35v9.45h5.94v1.2zm12.1 0v-10.65h1.35v10.65zm5.246-8.13v8.13h-1.35v-10.65h1.05l6.6 8.295v-8.28h1.35v10.635h-1.14zm17.873-1.32h-3.675v9.45h-1.35v-9.45h-3.675v-1.2h8.7zm8.764 8.25v1.2h-7.23v-10.65h7.095v1.2h-5.745v3.45h4.995v1.125h-4.995v3.675zm1.852 1.2v-10.65h1.35v9.45h5.94v1.2zm8.76 0v-10.65h1.35v9.45h5.94v1.2zm8.76 0v-10.65h1.35v10.65zm11.411-1.44c-.94 1.01-2.02 1.515-3.24 1.515-.71 0-1.37-.155-1.98-.465-.6-.31-1.12-.715-1.56-1.215-.44-.51-.79-1.09-1.05-1.74-.25-.65-.375-1.32-.375-2.01 0-.72.125-1.4.375-2.04.25-.65.595-1.22 1.035-1.71.44-.5.965-.895 1.575-1.185s1.27-.435 1.98-.435c1.03 0 1.875.215 2.535.645.67.43 1.18.99 1.53 1.68l-1.035.72c-.32-.62-.745-1.08-1.275-1.38s-1.125-.45-1.785-.45c-.54 0-1.03.12-1.47.36-.44.23-.815.54-1.125.93-.31.38-.55.825-.72 1.335-.17.5-.255 1.02-.255 1.56 0 .57.095 1.11.285 1.62.19.5.45.945.78 1.335.33.38.72.68 1.17.9s.94.33 1.47.33c1.16 0 2.205-.56 3.135-1.68v-1.47h-2.295v-1.02h3.435v5.31h-1.14zm10.423.24v1.2h-7.23v-10.65h7.095v1.2h-5.745v3.45h4.995v1.125h-4.995v3.675zm3.202-6.93v8.13h-1.35v-10.65h1.05l6.6 8.295v-8.28h1.35v10.635h-1.14zm9.503 2.73c0-.64.11-1.275.33-1.905.23-.64.56-1.21.99-1.71.44-.51.975-.92 1.605-1.23s1.345-.465 2.145-.465c.95 0 1.765.215 2.445.645s1.185.99 1.515 1.68l-1.065.69c-.16-.34-.355-.625-.585-.855-.22-.23-.465-.415-.735-.555-.26-.14-.53-.24-.81-.3s-.555-.09-.825-.09c-.59 0-1.115.125-1.575.375-.45.24-.83.56-1.14.96-.31.39-.545.835-.705 1.335-.15.49-.225.985-.225 1.485 0 .56.09 1.095.27 1.605.19.5.45.945.78 1.335s.72.7 1.17.93.94.345 1.47.345c.28 0 .565-.035.855-.105.3-.07.585-.18.855-.33.27-.16.52-.355.75-.585.24-.24.435-.525.585-.855l1.125.615c-.17.4-.41.755-.72 1.065-.3.3-.645.555-1.035.765-.38.21-.785.37-1.215.48s-.85.165-1.26.165c-.73 0-1.4-.16-2.01-.48s-1.14-.735-1.59-1.245c-.44-.52-.785-1.105-1.035-1.755-.24-.66-.36-1.33-.36-2.01zm18.145 4.2v1.2h-7.23v-10.65h7.095v1.2h-5.745v3.45h4.995v1.125h-4.995v3.675z"/><path d="m182.963 13.5125-.758 6.24-.352 1.5525c-.055.18-.138.3175-.248.4125-.105.1-.252.15-.442.15h-.518l1.005-8.3325-.75-.0975c-.09-.025-.162-.0625-.217-.1125-.05-.05-.07-.1275-.06-.2325l.067-.54h1.08l.09-.735c.055-.435.163-.82.323-1.155.165-.34.37-.625.615-.855.25-.235.532-.4125.847-.5325.32-.12.665-.18 1.035-.18.305 0 .588.05.848.15l-.128.69c-.02.1-.087.15-.202.15s-.26 0-.435 0c-.215 0-.415.0325-.6.0975-.18.06-.34.16-.48.3s-.26.3225-.36.5475c-.095.225-.163.5-.203.825l-.082.6975h1.897l-.127.96zm5.005 5.55c.365 0 .695-.1.99-.3.3-.2.555-.465.765-.795.215-.335.38-.72.495-1.155s.172-.89.172-1.365c0-.7-.14-1.225-.42-1.575-.275-.355-.672-.5325-1.192-.5325-.37 0-.705.1-1.005.3-.295.195-.548.4575-.758.7875s-.372.7125-.487 1.1475-.173.89-.173 1.365c0 .7.138 1.23.413 1.59.275.355.675.5325 1.2.5325zm-.128 1.0425c-.415 0-.795-.07-1.14-.21-.345-.145-.642-.3525-.892-.6225s-.445-.6-.585-.99-.21-.835-.21-1.335c0-.64.1-1.2425.3-1.8075s.475-1.0575.825-1.4775c.35-.425.76-.76 1.23-1.005.475-.245.985-.3675 1.53-.3675.415 0 .795.0725 1.14.2175.345.14.642.345.892.615s.445.6.585.99.21.8325.21 1.3275c0 .635-.1 1.235-.3 1.8s-.475 1.06-.825 1.485c-.345.425-.755.7625-1.23 1.0125-.475.245-.985.3675-1.53.3675zm6.856-5.5875c.2-.425.415-.7925.645-1.1025.235-.315.48-.56.735-.735.255-.18.518-.2875.788-.3225.27-.04.545 0 .825.12l-.24 1.2825c-.65-.26-1.225-.165-1.725.285-.495.45-.898 1.2625-1.208 2.4375l-.42 3.5175h-1.305l.915-7.605h.66c.305 0 .458.15.458.45z"/></g></svg>