<svg fill="none" height="56" viewBox="0 0 194 56" width="194" xmlns="http://www.w3.org/2000/svg"><path d="m24.5 56c13.531 0 24.5-10.9691 24.5-24.5 0-13.531-10.969-24.50003-24.5-24.50003s-24.5 10.96903-24.5 24.50003c0 13.5309 10.969 24.5 24.5 24.5z" fill="#08426c"/><path d="m43.2 14-26.2 26.3h10.1999l26.2-26.3z" fill="#ffc903"/><path d="m51.2 14-26.2 26.3h10.2l26.2-26.3z" fill="#00bdff"/><path d="m67.5 14h-8.3l-26.2 26.3h8.3z" fill="#008ee6"/><path d="m20.6 35.5999h-11.70002c-.2 0-.4-.1-.6-.3l-2.9-4.5c-.7-1.1-.7-2.4-.1-3.5s1.7-1.8 3-1.8h11.20002c.4 0 .6-.3.7-.4s.2-.4 0-.8l-3-5.2c-.2-.3-.1-.7.3-.9.3-.2.7-.1.9.3l3 5.2c.4.7.4 1.5 0 2.2s-1.1 1.1-1.9 1.1h-11.20002c-.8 0-1.4.4-1.8 1.1s-.3 1.5.1 2.1l2.7 4.2h11.30002c.4 0 .7.3.7.7 0 .2-.3.5-.7.5z" fill="#fff"/><path d="m21.5001 16.6157-8.9-14.6c-1.1-1.9999954-3.60004-2.599995-5.50004-1.399995-1.9 1.099995-2.5 3.599995-1.4 5.499995l8.90004 14.6c1.2 1.9 3.6 2.5 5.5 1.4s2.6-3.6 1.4-5.5z" fill="#666d74"/><path d="m9.19995 8c2.20915 0 4.00005-1.79086 4.00005-4s-1.7909-4-4.00005-4c-2.20914 0-4 1.79086-4 4s1.79086 4 4 4z" fill="#4c5258"/><path d="m11.8 31c-3.30001 0-6.00001 2.7-6.00001 6s2.7 6 6.00001 6h8v-12z" fill="#ffc903"/><path d="m19.8 31c-3.3 0-6 2.7-6 6s2.7 6 6 6h8.3v-12z" fill="#00bdff"/><path d="m28.1 31c-3.3 0-6 2.7-6 6s2.7 6 6 6h8.1v-12z" fill="#008ee6"/><path d="m36.2 43c3.3137 0 6-2.6863 6-6s-2.6863-6-6-6-6 2.6863-6 6 2.6863 6 6 6z" fill="#fff"/><path d="m36.2 38.9c1.0493 0 1.9-.8507 1.9-1.9 0-1.0494-.8507-1.9-1.9-1.9-1.0494 0-1.9.8506-1.9 1.9 0 1.0493.8506 1.9 1.9 1.9z" fill="#333"/><g fill="#666d74"><path d="m77.408 19.12 7.112 17.444 7.084-17.444h2.044l-8.288 19.88h-1.708l-8.288-19.88z"/><path d="m100.961 19.12h1.652l8.26 19.88h-2.072l-2.576-6.216h-8.9324l-2.548 6.216h-2.1zm4.816 12.124-4.004-9.828-4.0604 9.828z"/><path d="m113.722 39v-19.88h8.4c.859 0 1.643.1867 2.352.56.728.3547 1.354.8307 1.876 1.428.523.5787.924 1.2413 1.204 1.988.299.7467.448 1.5027.448 2.268 0 .728-.112 1.428-.336 2.1-.205.6533-.504 1.2507-.896 1.792-.373.5227-.83.9707-1.372 1.344-.541.3547-1.148.5973-1.82.728l4.872 7.672h-2.212l-4.676-7.336h-5.88v7.336zm1.96-9.072h6.496c.579 0 1.102-.1213 1.568-.364.486-.2613.896-.6067 1.232-1.036s.598-.9147.784-1.456c.187-.5413.28-1.1107.28-1.708s-.112-1.1667-.336-1.708c-.205-.56-.494-1.0453-.868-1.456-.354-.4107-.784-.7373-1.288-.98-.485-.2427-.998-.364-1.54-.364h-6.328z"/><path d="m133.975 22.76v16.24h-1.96v-19.88h1.512l13.16 16.548v-16.52h1.96v19.852h-1.708z"/><path d="m153.644 39v-19.88h1.96v19.88z"/><path d="m172.21 22.844c-.56-.6347-1.307-1.148-2.24-1.54-.934-.392-1.998-.588-3.192-.588-1.755 0-3.034.336-3.836 1.008-.803.6533-1.204 1.5493-1.204 2.688 0 .5973.102 1.092.308 1.484.224.3733.56.7 1.008.98s1.017.5227 1.708.728c.709.2053 1.54.4107 2.492.616 1.064.224 2.016.476 2.856.756.858.28 1.586.6347 2.184 1.064.597.4107 1.054.9147 1.372 1.512.317.5973.476 1.344.476 2.24 0 .9147-.178 1.708-.532 2.38-.355.672-.85 1.232-1.484 1.68-.635.448-1.391.784-2.268 1.008-.878.2053-1.839.308-2.884.308-3.08 0-5.74-.9613-7.98-2.884l.98-1.596c.354.3733.774.728 1.26 1.064.504.336 1.054.6347 1.652.896.616.2427 1.269.4387 1.96.588.69.1307 1.418.196 2.184.196 1.586 0 2.818-.28 3.696-.84.896-.5787 1.344-1.4467 1.344-2.604 0-.616-.131-1.1293-.392-1.54-.243-.4293-.616-.7933-1.12-1.092-.504-.3173-1.13-.588-1.876-.812-.747-.224-1.615-.448-2.604-.672-1.046-.2427-1.96-.4947-2.744-.756s-1.447-.588-1.988-.98c-.542-.392-.952-.8587-1.232-1.4-.262-.56-.392-1.2413-.392-2.044 0-.9147.168-1.7267.504-2.436.354-.728.849-1.3253 1.484-1.792.634-.4853 1.381-.8493 2.24-1.092.858-.2613 1.81-.392 2.856-.392 1.325 0 2.501.2053 3.528.616 1.045.392 1.988.952 2.828 1.68z"/><path d="m193.277 19.12v19.88h-1.932v-9.296h-11.788v9.296h-1.96v-19.88h1.96v8.848h11.788v-8.848z"/></g></svg>
